<svg width="22" height="22" viewBox="0 0 22 22" fill="none" xmlns="http://www.w3.org/2000/svg">
<g id="discord">
<rect id="&#231;&#159;&#169;&#229;&#189;&#162;" opacity="0.01" width="22" height="22" fill="#F0F0F0" fill-opacity="0.6"/>
<path id="&#229;&#189;&#162;&#231;&#138;&#182;" fill-rule="evenodd" clip-rule="evenodd" d="M14.0831 16.8437C13.8161 16.909 13.5475 16.9669 13.2773 17.0174C11.8114 17.2944 10.3063 17.2887 8.84252 17.0007C8.58615 16.9506 8.22324 16.8621 7.75545 16.7367L6.22224 18.7367C2.43832 18.6147 1 16.0701 1 16.0701C1 10.4211 3.46546 5.84137 3.46546 5.84137C5.93091 3.94834 8.27651 4.00014 8.27651 4.00014L8.94739 4.87732C9.00923 4.86862 9.07145 4.86304 9.13384 4.86061C10.4127 4.69047 11.7087 4.69609 12.986 4.87732L13.7218 4.00014C13.7218 4.00014 16.0691 3.94834 18.5329 5.84305C18.5329 5.84305 21 10.4211 21 16.0701C21 16.0701 19.5434 18.6131 15.7594 18.7367L14.0831 16.842V16.8437ZM7.69386 10.8622C6.69336 10.8622 5.90261 11.614 5.90261 12.533C5.90261 13.4519 6.71 14.2038 7.69386 14.2038C8.69269 14.2038 9.48344 13.4519 9.48344 12.533C9.50008 11.614 8.69436 10.8622 7.69386 10.8622ZM12.3101 12.533C12.3101 11.614 13.1009 10.8622 14.0997 10.8622C15.1002 10.8622 15.891 11.614 15.891 12.533C15.891 13.4519 15.1002 14.2038 14.0997 14.2038C13.1175 14.2038 12.3101 13.4519 12.3101 12.533Z" fill="#F0F0F0" fill-opacity="0.6"/>
</g>
</svg>
