<svg width="22px" height="22px" viewBox="0 0 22 22">
    <g stroke="none" stroke-width="1" fill="none" fill-rule="evenodd">
        <path
            d="M14.0830698,16.8438118 C13.8161329,16.9091389 13.5474557,16.9670823 13.2773431,17.0175763 C11.8114061,17.2945198 10.3063412,17.2888495 8.84251706,17.0008681 C8.58614949,16.9507438 8.22323955,16.8621907 7.75545197,16.7368798 L6.22224072,18.7368421 C2.43832196,18.6148728 1,16.0702257 1,16.0702257 C1,10.4212094 3.46545697,5.8415129 3.46545697,5.8415129 C5.93091393,3.94848258 8.27651074,4.00013834 8.27651074,4.00013834 L8.94739471,4.87745421 C9.00922648,4.86875512 9.0714546,4.86317872 9.13384385,4.86074609 C10.4126925,4.69060898 11.7086806,4.6962301 12.9860163,4.87745421 L13.7218245,4.00013834 C13.7218245,4.00013834 16.0690861,3.94848258 18.5328783,5.84318371 C18.5328783,5.84318371 21,10.4212094 21,16.0702257 C21,16.0702257 19.5433661,18.613202 15.7594473,18.7368421 L14.0830698,16.842141 L14.0830698,16.8438118 Z M7.69385717,10.8623038 C6.69335775,10.8623038 5.90261362,11.6141693 5.90261362,12.5331161 C5.90261362,13.4520629 6.71000499,14.2039284 7.69385717,14.2039284 C8.69269186,14.2039284 9.48343599,13.4520629 9.48343599,12.5331161 C9.50008324,11.6141693 8.69435658,10.8623038 7.69385717,10.8623038 Z M14.099717,10.8623038 C13.1008823,10.8623038 12.3101382,11.6141693 12.3101382,12.5331161 C12.3101382,13.4520629 13.1175295,14.2039284 14.099717,14.2039284 C15.1002164,14.2039284 15.8909605,13.4520629 15.8909605,12.5331161 C15.8909605,11.6141693 15.1002164,10.8623038 14.099717,10.8623038 Z"
            fill="#FFFFFF" fill-rule="nonzero" opacity="0.7"></path>
    </g>
</svg>