<svg width="20" height="20" viewBox="0 0 20 20" fill="none" xmlns="http://www.w3.org/2000/svg">
<g id="zhuibo">
<path id="Vector" d="M10.0758 1.76001C8.43102 1.76001 6.82321 2.24773 5.45565 3.16151C4.08809 4.07528 3.02221 5.37406 2.39279 6.89361C1.76337 8.41316 1.59868 10.0852 1.91956 11.6984C2.24043 13.3115 3.03246 14.7933 4.19547 15.9563C5.35848 17.1193 6.84025 17.9113 8.4534 18.2322C10.0665 18.5531 11.7386 18.3884 13.2582 17.759C14.7777 17.1296 16.0765 16.0637 16.9903 14.6961C17.904 13.3286 18.3918 11.7208 18.3918 10.076C18.3918 8.98394 18.1767 7.90256 17.7587 6.89361C17.3408 5.88467 16.7283 4.96792 15.9561 4.19571C15.1839 3.4235 14.2671 2.81095 13.2582 2.39303C12.2492 1.97511 11.1678 1.76001 10.0758 1.76001V1.76001ZM10.0758 3.42321C11.7845 3.42253 13.4269 4.08427 14.6579 5.26936C13.3872 6.01464 12.0407 6.62237 10.6413 7.08225C9.94478 5.8821 9.14627 4.74416 8.25456 3.68101C8.84663 3.51053 9.45965 3.42375 10.0758 3.42321V3.42321ZM6.65789 4.37955C7.52914 5.37623 8.31109 6.44757 8.99469 7.58121C7.36234 7.98653 5.687 8.19316 4.00509 8.19659H3.70571C4.1774 6.59962 5.23081 5.2376 6.65789 4.37955V4.37955ZM5.08617 14.4918C4.00405 13.2766 3.41139 11.7031 3.42297 10.076C3.42297 9.99285 3.42297 9.90969 3.42297 9.83484H3.98846C5.95717 9.81724 7.91477 9.53759 9.80966 9.00324C10.0758 9.51052 10.3252 10.0344 10.5664 10.575C9.27036 11.0319 8.0633 11.71 6.99885 12.5791L6.74937 12.7787C6.15654 13.3111 5.60084 13.8835 5.08617 14.4918V14.4918ZM10.0758 16.7288C8.75027 16.7317 7.45473 16.3347 6.35852 15.5895C6.76337 15.1251 7.19664 14.6863 7.65581 14.2756L7.92192 14.0511C8.90584 13.2235 10.0333 12.5837 11.2483 12.1633C11.7484 13.5155 12.1378 14.9061 12.4126 16.3213C11.664 16.5947 10.8727 16.7326 10.0758 16.7288V16.7288ZM13.9261 15.4897C13.654 14.2311 13.2984 12.9921 12.8616 11.7808H13.1444C13.1771 11.7727 13.2114 11.7727 13.2442 11.7808H13.3356H13.4188H13.818C14.6931 11.7833 15.5617 11.9323 16.3876 12.2215C15.9338 13.5441 15.0719 14.6884 13.9261 15.4897V15.4897ZM13.818 10.076C13.6433 10.076 13.4687 10.076 13.3024 10.076C13.1947 10.0624 13.0857 10.0624 12.9781 10.076C12.752 10.0899 12.5271 10.1177 12.3045 10.1592H12.2213C11.9801 9.602 11.7307 9.06146 11.4562 8.49597C12.9453 7.98458 14.3755 7.3155 15.7223 6.50013C16.3905 7.57237 16.7395 8.81268 16.7286 10.076C16.7286 10.2174 16.7286 10.3588 16.7286 10.5001C15.7861 10.2092 14.8043 10.0662 13.818 10.076V10.076Z" fill="#F0F0F0" />
</g>
</svg>
