<svg width="22" height="22" viewBox="0 0 22 22" fill="none" xmlns="http://www.w3.org/2000/svg">
<g id="dribbble" opacity="0.7">
<path d="M11.45 2C9.58097 2 7.75391 2.55423 6.19986 3.59261C4.64582 4.63099 3.43459 6.10688 2.71934 7.83364C2.00409 9.5604 1.81695 11.4605 2.18158 13.2936C2.54621 15.1267 3.44624 16.8105 4.76784 18.1322C6.08945 19.4538 7.77328 20.3538 9.6064 20.7184C11.4395 21.083 13.3396 20.8959 15.0664 20.1807C16.7931 19.4654 18.269 18.2542 19.3074 16.7001C20.3458 15.1461 20.9 13.319 20.9 11.45C20.9 10.209 20.6556 8.98017 20.1807 7.83364C19.7058 6.68711 19.0097 5.64535 18.1322 4.76784C17.2546 3.89033 16.2129 3.19425 15.0664 2.71934C13.9198 2.24443 12.691 2 11.45 2ZM11.45 3.89C13.3917 3.88923 15.2581 4.64121 16.657 5.9879C15.213 6.83481 13.6829 7.52541 12.0926 8.048C11.3012 6.6842 10.3938 5.39107 9.38045 4.18295C10.0533 3.98922 10.7499 3.89062 11.45 3.89ZM7.56605 4.97675C8.55611 6.10934 9.44468 7.32677 10.2215 8.615C8.36656 9.0756 6.46277 9.3104 4.5515 9.3143H4.2113C4.74731 7.49956 5.94437 5.95181 7.56605 4.97675ZM5.78 16.4679C4.55033 15.0871 3.87685 13.299 3.89 11.45C3.89 11.3555 3.89 11.261 3.89 11.1759H4.5326C6.76977 11.1559 8.99432 10.8382 11.1476 10.2309C11.45 10.8074 11.7335 11.4027 12.0076 12.017C10.5348 12.5362 9.16311 13.3068 7.9535 14.2944L7.67 14.5212C6.99633 15.1263 6.36485 15.7767 5.78 16.4679ZM11.45 19.01C9.94376 19.0133 8.47155 18.5621 7.22585 17.7153C7.68592 17.1877 8.17826 16.689 8.70005 16.2222L9.00245 15.9671C10.1205 15.0267 11.4018 14.2996 12.7825 13.8219C13.3507 15.3585 13.7932 16.9387 14.1055 18.5469C13.2548 18.8575 12.3556 19.0143 11.45 19.01ZM15.8254 17.6019C15.5162 16.1718 15.1121 14.7637 14.6158 13.3872H14.9371C14.9743 13.378 15.0132 13.378 15.0505 13.3872H15.1544H15.2489H15.7025C16.697 13.3901 17.684 13.5594 18.6226 13.8881C18.1069 15.391 17.1275 16.6914 15.8254 17.6019ZM15.7025 11.45C15.5041 11.45 15.3056 11.45 15.1166 11.45C14.9942 11.4346 14.8704 11.4346 14.7481 11.45C14.4912 11.4658 14.2356 11.4973 13.9826 11.5445H13.8881C13.6141 10.9113 13.3306 10.2971 13.0187 9.6545C14.7108 9.07338 16.336 8.31306 17.8666 7.3865C18.6258 8.60495 19.0224 10.0144 19.01 11.45C19.01 11.6106 19.01 11.7713 19.01 11.9319C17.939 11.6014 16.8233 11.4388 15.7025 11.45Z" fill="#353C4E"/>
</g>
</svg>
