<svg width="22px" height="22px" viewBox="0 0 22 22">
    <g stroke="none" stroke-width="1" fill="none" fill-rule="evenodd">
        <path
            d="M11,1 C5.47500114,1 1,5.58830178 1,11.2531883 C0.997675302,15.6676048 3.75290277,19.5873876 7.83800097,20.9814134 C8.33800093,21.0706161 8.52500092,20.7630205 8.52500092,20.4933616 C8.52500092,20.2503611 8.51200092,19.4434352 8.51200092,18.584218 C6,19.0589406 5.35000115,17.9567229 5.15000117,17.3794683 C5.03700117,17.0841765 4.55000121,16.1747187 4.12500124,15.9306928 C3.77500127,15.7389582 3.2750013,15.2642356 4.11200124,15.2519318 C4.90000118,15.2386026 5.46200114,15.9952879 5.65000113,16.3028836 C6.55000106,17.8531656 7.98800096,17.4174051 8.56200092,17.1487716 C8.65000091,16.4823144 8.91200089,16.03425 9.20000087,15.7779203 C6.97500103,15.5215906 4.6500012,14.6367405 4.6500012,10.7148959 C4.6500012,9.59934905 5.03700117,8.67758742 5.67500113,7.95883892 C5.57500114,7.70250921 5.22500116,6.6515574 5.77500112,5.24174401 C5.77500112,5.24174401 6.61200106,4.97311048 8.52500092,6.29372113 C9.33906373,6.06206132 10.180167,5.94546497 11.0250007,5.94716337 C11.8750007,5.94716337 12.7250006,6.06199908 13.5250006,6.29269581 C15.4370004,4.95978133 16.2750003,5.24276933 16.2750003,5.24276933 C16.8250003,6.65258272 16.4750003,7.70353453 16.3750003,7.95986423 C17.0120003,8.67758742 17.4000003,9.58704522 17.4000003,10.7148959 C17.4000003,14.6500696 15.0630004,15.5215906 12.8380006,15.7779203 C13.2000006,16.0978198 13.5130006,16.7130111 13.5130006,17.6747602 C13.5130006,19.0456115 13.5,20.1478292 13.5,20.494387 C13.5,20.7630205 13.6880005,21.08292 14.1880005,20.9803881 C18.2582343,19.5713662 20.9988366,15.6579211 21,11.2531883 C21,5.58830178 16.5250003,1 11,1 Z"
            fill="currentColor" fill-rule="nonzero"></path>
    </g>
</svg>