<svg width="22" height="22" viewBox="0 0 22 22" fill="none" xmlns="http://www.w3.org/2000/svg">
<g id="GitHub">
<rect id="&#231;&#159;&#169;&#229;&#189;&#162;" opacity="0.01" width="22" height="22" fill="#F0F0F0" fill-opacity="0.6"/>
<path id="&#232;&#183;&#175;&#229;&#190;&#132;" d="M11 1C5.475 1 1 5.5883 1 11.2532C0.997675 15.6676 3.7529 19.5874 7.838 20.9814C8.338 21.0706 8.525 20.763 8.525 20.4934C8.525 20.2504 8.512 19.4434 8.512 18.5842C6 19.0589 5.35 17.9567 5.15 17.3795C5.037 17.0842 4.55 16.1747 4.125 15.9307C3.775 15.739 3.275 15.2642 4.112 15.2519C4.9 15.2386 5.462 15.9953 5.65 16.3029C6.55 17.8532 7.988 17.4174 8.562 17.1488C8.65 16.4823 8.912 16.0343 9.2 15.7779C6.975 15.5216 4.65 14.6367 4.65 10.7149C4.65 9.59935 5.037 8.67759 5.675 7.95884C5.575 7.70251 5.225 6.65156 5.775 5.24174C5.775 5.24174 6.612 4.97311 8.525 6.29372C9.33906 6.06206 10.1802 5.94547 11.025 5.94716C11.875 5.94716 12.725 6.062 13.525 6.2927C15.437 4.95978 16.275 5.24277 16.275 5.24277C16.825 6.65258 16.475 7.70353 16.375 7.95986C17.012 8.67759 17.4 9.58705 17.4 10.7149C17.4 14.6501 15.063 15.5216 12.838 15.7779C13.2 16.0978 13.513 16.713 13.513 17.6748C13.513 19.0456 13.5 20.1478 13.5 20.4944C13.5 20.763 13.688 21.0829 14.188 20.9804C18.2582 19.5714 20.9988 15.6579 21 11.2532C21 5.5883 16.525 1 11 1Z" fill="#F0F0F0" fill-opacity="0.6"/>
</g>
</svg>
