<svg width="22" height="22" viewBox="0 0 22 22" fill="none" xmlns="http://www.w3.org/2000/svg">
<path d="M12.421 2C13.4845 2.00176 14.0235 2.00739 14.4892 2.02125L14.6726 2.02725C14.8845 2.03478 15.0935 2.04423 15.3456 2.05604C16.3512 2.10251 17.0372 2.26158 17.6396 2.49548C18.2625 2.73568 18.7886 3.06014 19.3139 3.58542C19.8384 4.1107 20.1629 4.63834 20.4039 5.2597C20.6369 5.86137 20.796 6.5481 20.8433 7.55376C20.8545 7.80578 20.8636 8.01482 20.8711 8.22673L20.877 8.41015C20.8908 8.87581 20.8972 9.41484 20.8991 10.4784L20.8999 11.183C20.9 11.2691 20.9 11.358 20.9 11.4496L20.8999 11.7162L20.8993 12.4209C20.8975 13.4845 20.892 14.0235 20.8781 14.4891L20.872 14.6726C20.8646 14.8845 20.8551 15.0936 20.8433 15.3455C20.7968 16.3512 20.6369 17.0371 20.4039 17.6396C20.1636 18.2626 19.8384 18.7887 19.3139 19.3139C18.7886 19.8384 18.2601 20.1628 17.6396 20.4038C17.0372 20.6369 16.3512 20.796 15.3456 20.8433C15.0935 20.8545 14.8845 20.8637 14.6726 20.871L14.4892 20.877C14.0235 20.8909 13.4845 20.8971 12.421 20.8992L11.7163 20.9C11.6302 20.9 11.5413 20.9 11.4497 20.9H11.1831L10.4784 20.8993C9.41484 20.8976 8.87581 20.8919 8.41014 20.878L8.22673 20.8721C8.01481 20.8645 7.80577 20.8551 7.55377 20.8433C6.54809 20.7969 5.86294 20.6369 5.2597 20.4038C4.63755 20.1637 4.11069 19.8384 3.58541 19.3139C3.06014 18.7887 2.73646 18.2602 2.49548 17.6396C2.26158 17.0371 2.10329 16.3512 2.05604 15.3455C2.04481 15.0936 2.03566 14.8845 2.02824 14.6726L2.02229 14.4891C2.00847 14.0235 2.00216 13.4845 2.00012 12.4209L2 10.4784C2.00176 9.41484 2.00738 8.87581 2.02124 8.41015L2.02725 8.22673C2.03478 8.01482 2.04423 7.80578 2.05604 7.55376C2.1025 6.54731 2.26158 5.86216 2.49548 5.2597C2.73567 4.63756 3.06014 4.1107 3.58541 3.58542C4.11069 3.06014 4.63834 2.73646 5.2597 2.49548C5.86216 2.26158 6.54731 2.10329 7.55377 2.05604C7.80577 2.04482 8.01481 2.03567 8.22673 2.02825L8.41014 2.0223C8.87581 2.00847 9.41484 2.00216 10.4784 2.00012L12.421 2ZM11.4497 6.7245C8.83863 6.7245 6.7245 8.84093 6.7245 11.4496C6.7245 14.0607 8.84093 16.1748 11.4497 16.1748C14.0607 16.1748 16.1748 14.0584 16.1748 11.4496C16.1748 8.83863 14.0583 6.7245 11.4497 6.7245ZM11.4497 8.61456C13.0155 8.61456 14.2848 9.88343 14.2848 11.4496C14.2848 13.0155 13.0159 14.2847 11.4497 14.2847C9.88386 14.2847 8.61456 13.0159 8.61456 11.4496C8.61456 9.88381 9.88338 8.61456 11.4497 8.61456ZM16.4111 5.30695C15.7597 5.30695 15.2298 5.83608 15.2298 6.48744C15.2298 7.1388 15.7589 7.66875 16.4111 7.66875C17.0624 7.66875 17.5924 7.13962 17.5924 6.48744C17.5924 5.83608 17.0616 5.30614 16.4111 5.30695Z" fill="#F0F0F0"/>
</svg>
