<svg width="20" height="20" viewBox="0 0 20 20" fill="none" xmlns="http://www.w3.org/2000/svg">
<g id="ins">
<path id="Vector" d="M10.9312 1.76001C11.8671 1.76156 12.3414 1.76651 12.7512 1.77871L12.9126 1.78399C13.0991 1.79061 13.2831 1.79893 13.5048 1.80933C14.3898 1.85022 14.9935 1.9902 15.5236 2.19603C16.0718 2.40741 16.5347 2.69293 16.9969 3.15518C17.4585 3.61743 17.7441 4.08175 17.9561 4.62854C18.1612 5.15802 18.3013 5.76234 18.3428 6.64732C18.3527 6.86909 18.3607 7.05305 18.3673 7.23953L18.3725 7.40094C18.3847 7.81072 18.3902 8.28507 18.392 9.22102L18.3927 9.84108C18.3927 9.91684 18.3927 9.99502 18.3927 10.0757L18.3927 10.3103L18.3922 10.9304C18.3906 11.8663 18.3857 12.3407 18.3734 12.7505L18.3681 12.9119C18.3616 13.0984 18.3532 13.2824 18.3428 13.5041C18.3019 14.3891 18.1612 14.9927 17.9561 15.5228C17.7447 16.0711 17.4585 16.534 16.9969 16.9962C16.5347 17.4578 16.0697 17.7433 15.5236 17.9554C14.9935 18.1605 14.3898 18.3005 13.5048 18.3421C13.2831 18.352 13.0991 18.36 12.9126 18.3665L12.7512 18.3718C12.3414 18.384 11.8671 18.3895 10.9312 18.3913L10.3111 18.392C10.2353 18.392 10.1571 18.392 10.0765 18.392H9.84186L9.22171 18.3914C8.2858 18.3899 7.81145 18.3849 7.40167 18.3727L7.24027 18.3674C7.05377 18.3608 6.86982 18.3525 6.64806 18.3421C5.76306 18.3012 5.16013 18.1605 4.62928 17.9554C4.08178 17.744 3.61815 17.4578 3.15591 16.9962C2.69366 16.534 2.40883 16.069 2.19676 15.5228C1.99094 14.9927 1.85164 14.3891 1.81006 13.5041C1.80018 13.2824 1.79212 13.0984 1.78559 12.9119L1.78036 12.7505C1.76819 12.3407 1.76265 11.8663 1.76085 10.9304L1.76074 9.22102C1.76229 8.28507 1.76724 7.81072 1.77944 7.40094L1.78472 7.23953C1.79135 7.05305 1.79966 6.86909 1.81006 6.64732C1.85094 5.76164 1.99094 5.15871 2.19676 4.62854C2.40813 4.08106 2.69366 3.61743 3.15591 3.15518C3.61815 2.69293 4.08248 2.4081 4.62928 2.19603C5.15944 1.9902 5.76237 1.85091 6.64806 1.80933C6.86982 1.79945 7.05377 1.7914 7.24027 1.78487L7.40167 1.77964C7.81145 1.76746 8.2858 1.76191 9.22171 1.76012L10.9312 1.76001ZM10.0765 5.91757C7.77874 5.91757 5.9183 7.78002 5.9183 10.0757C5.9183 12.3734 7.78076 14.2338 10.0765 14.2338C12.3742 14.2338 14.2346 12.3714 14.2346 10.0757C14.2346 7.778 12.3721 5.91757 10.0765 5.91757ZM10.0765 7.58083C11.4544 7.58083 12.5713 8.69743 12.5713 10.0757C12.5713 11.4536 11.4547 12.5706 10.0765 12.5706C8.69854 12.5706 7.58156 11.454 7.58156 10.0757C7.58156 8.69776 8.69812 7.58083 10.0765 7.58083ZM14.4425 4.67013C13.8693 4.67013 13.403 5.13576 13.403 5.70895C13.403 6.28215 13.8686 6.74851 14.4425 6.74851C15.0157 6.74851 15.482 6.28288 15.482 5.70895C15.482 5.13576 15.0149 4.66941 14.4425 4.67013Z" fill="#F0F0F0" />
</g>
</svg>
