<svg width="22px" height="22px" viewBox="0 0 22 22">
    <g stroke="none" stroke-width="1" fill="none" fill-rule="evenodd">
        <path
            d="M19.3333333,1 L2.66666667,1 C1.74666667,1 1,1.7452073 1,2.66340916 L1,19.3365908 C1,20.2547927 1.74666667,21 2.66666667,21 L19.3333333,21 C20.2533333,21 21,20.2547927 21,19.3365908 L21,2.66340916 C21,1.7452073 20.2533333,1 19.3333333,1 Z M6.92083334,17.4918701 L3.96166666,17.4918701 L3.96166666,8.63088951 L6.92166667,8.63088951 L6.92166667,17.4918701 L6.92083334,17.4918701 Z M5.44083333,7.55715891 C4.51333333,7.55715891 3.76083333,6.80612967 3.76083333,5.88044248 C3.76083333,4.95392357 4.51333333,4.20289434 5.44083333,4.20289434 C6.36916667,4.20289434 7.12166667,4.95392357 7.12166667,5.88044248 C7.12166667,6.80612967 6.36916667,7.55715891 5.44083333,7.55715891 Z M18.0483333,17.4918701 L15.0791667,17.4918701 L15.01,12.2280118 C15.01,12.2280118 15.0791667,10.8240945 13.5516667,10.8415603 C12.0241667,10.8590261 11.8041667,12.2280118 11.8041667,12.2280118 L11.8041667,17.4918701 L8.81416666,17.4918701 L8.81416666,10.4772737 L8.81416666,9.92252672 L8.81416666,8.63088951 L11.6808333,8.63088951 L11.6808333,9.85349523 C11.6808333,9.85349523 11.7983333,9.45510875 12.4583333,8.98685906 C13.1175,8.51860939 14.2116667,8.41464631 14.6808333,8.43211211 C15.15,8.44957791 15.7916667,8.36807086 16.8683333,9.10828793 C18.0191667,9.89840729 18.0483333,11.9668566 18.0483333,11.9668566 L18.0483333,17.4918701 Z"
            fill="currentColor" fill-rule="nonzero"></path>
    </g>
</svg>