<svg width="22" height="22" viewBox="0 0 22 22" fill="none" xmlns="http://www.w3.org/2000/svg">
<g id="dark_linkedin">
<path id="&#229;&#189;&#162;&#231;&#138;&#182;" fill-rule="evenodd" clip-rule="evenodd" d="M1.83333 0H20.1667C21.1787 0 22 0.819728 22 1.82975V20.1702C22 21.1803 21.1787 22 20.1667 22H1.83333C0.821333 22 0 21.1803 0 20.1702V1.82975C0 0.819728 0.821333 0 1.83333 0ZM3.25783 18.1411H6.51292H6.51383V8.39398H3.25783V18.1411ZM4.88492 7.21287C3.86467 7.21287 3.03692 6.38674 3.03692 5.36849C3.03692 4.34932 3.86467 3.52318 4.88492 3.52318C5.90608 3.52318 6.73383 4.34932 6.73383 5.36849C6.73383 6.38674 5.90608 7.21287 4.88492 7.21287ZM15.4871 18.1411H18.7532V12.0635C18.7532 12.0635 18.7211 9.78825 17.4552 8.91912C16.4016 8.19479 15.7267 8.18576 15.2272 8.17907C15.1652 8.17824 15.1059 8.17745 15.0489 8.17532C14.5328 8.15611 13.3293 8.27047 12.6042 8.78555C11.8782 9.30062 11.7489 9.73884 11.7489 9.73884V8.39398H8.59558V9.81478V10.425V18.1411H11.8846V12.3508C11.8846 12.3508 12.1266 10.8449 13.8068 10.8257C15.4871 10.8065 15.411 12.3508 15.411 12.3508L15.4871 18.1411Z" fill="#F0F0F0"/>
</g>
</svg>
