<svg width="22px" height="22px" viewBox="0 0 22 22">
    <g stroke="none" stroke-width="1" fill="none" fill-rule="evenodd"
        transform="translate(1.000000, 2.000000)">
        <path
            fill="#FFFFFF" opacity="0.7" fill-rule="nonzero"
            d="M7.69674316,13.1835258 C6.41460803,14.6415923 5.1322284,16.0996385 3.85009327,17.5579484 C3.73611574,17.6876606 3.62409421,17.8188331 3.50712156,17.9458481 C3.48338473,17.9716851 3.44184018,17.9957983 3.4082215,17.9960416 C2.42231792,17.9987592 1.43643471,17.9982724 0.450551499,17.9977654 C0.439161896,17.9977654 0.427792668,17.9945814 0.400836596,17.9906268 C2.7922457,15.2699545 5.17574931,12.5586112 7.56120893,9.84457058 C5.04245632,6.56592871 2.52838996,3.29316811 0,0.00197279341 L0.117217147,0.00197279341 C2.15377594,0.00197279341 4.1905996,0.00221615602 6.22717877,0.000492337561 C6.29912276,0.000492337561 6.34437554,0.0209145162 6.38865033,0.0789970581 C7.80405808,1.94366162 9.22117733,3.80684573 10.6380928,5.67002984 C10.6563895,5.69414302 10.6756846,5.71776947 10.7003995,5.74877792 C10.8319606,5.59988057 10.9602821,5.4554043 11.0878904,5.30993431 C12.6197615,3.56662656 14.151877,1.82329853 15.682281,0.0787536955 C15.731242,0.0228816973 15.7802031,-0.000237750256 15.8556312,1.84184655e-06 C16.804432,0.00270288123 17.7532327,0.00172943081 18.7020131,0.00172943081 L18.8177429,0.00172943081 L12.1188023,7.62500221 C14.7424045,11.077912 17.3640302,14.5286112 20,17.9980088 L19.8731455,17.9980088 C17.8984043,17.9980088 15.9233983,17.9975221 13.9486571,18.0000018 C13.8633472,18.0000018 13.8101685,17.9773433 13.7572548,17.9081877 C12.1974293,15.8749337 10.6354033,13.8436266 9.07358111,11.8121167 C9.04911079,11.7806012 9.02462008,11.7493494 8.99346677,11.7092351 C8.55579224,12.2069117 8.12624733,12.6952187 7.69674316,13.1835258 Z M16.3724421,16.1702745 C16.3286563,16.1119486 16.3012112,16.075282 16.2737661,16.0388587 C14.4797712,13.677268 12.6857763,11.3154339 10.8918018,8.95384316 C9.0827091,6.57256034 7.27341261,4.19154117 5.46580725,1.8092849 C5.42253083,1.75217581 5.37852092,1.72879272 5.30557856,1.72903421 C4.76478636,1.73224036 4.22397379,1.7307599 3.68318159,1.73100327 C3.65451402,1.73100327 3.62582608,1.73396418 3.58328316,1.73617472 C3.61865409,1.78269754 3.64412279,1.8166669 3.67008049,1.85037262 C4.24078313,2.59268941 4.81150615,3.33502648 5.38198466,4.07734327 C8.46255643,8.08477502 11.5425984,12.09172 14.6214587,16.0998819 C14.6612714,16.1518195 14.7020824,16.1719983 14.7676083,16.1717571 C15.2651241,16.1690577 15.7626399,16.1702745 16.260176,16.1702745 L16.3724421,16.1702745 Z"
        ></path>
    </g>
</svg>