<svg width="22" height="22" viewBox="0 0 22 22" fill="none" xmlns="http://www.w3.org/2000/svg">
<g id="tuite" opacity="0.700833">
<rect id="&#231;&#159;&#169;&#229;&#189;&#162;" opacity="0.01" width="22" height="22" fill="#353C4E"/>
<path id="&#232;&#183;&#175;&#229;&#190;&#132;" d="M19.7856 7.40618C19.6873 15.0828 14.9473 20.3409 7.87159 20.6711C4.95366 20.8095 2.83971 19.8333 1 18.6229C3.15662 18.9794 5.83082 18.0866 7.26105 16.8186C5.1471 16.6056 3.89551 15.4913 3.30988 13.6979C3.92073 13.8072 4.56425 13.7782 5.14459 13.651C3.23701 12.9896 1.87481 11.7686 1.80443 9.21002C2.33973 9.46243 2.89777 9.6997 3.63914 9.74648C2.21154 8.90549 1.1559 5.83123 2.36495 3.79836C4.48373 6.20354 7.03238 8.16624 11.2173 8.43175C10.1666 3.78013 16.1185 1.25769 18.6095 4.38405C19.6625 4.17307 20.5196 3.75931 21.3441 3.30896C21.0048 4.3892 20.3513 5.1441 19.5546 5.74801C20.4291 5.62574 21.2032 5.40443 21.8645 5.06603C21.4543 5.9485 20.5573 6.73985 19.7856 7.40618Z" fill="#353C4E"/>
</g>
</svg>
