<svg width="22px" height="22px" viewBox="0 0 22 22">
    <g stroke="none" stroke-width="1" fill="none" fill-rule="evenodd">
        <path
            d="M20.3589242,6.24794382 C20.1308774,5.36848282 19.4634391,4.67581 18.6167752,4.43908193 C17.0699114,4 10.8830983,4 10.8830983,4 C10.8830983,4 4.69628518,4 3.14942131,4.42286768 C2.31881708,4.65959575 1.63531909,5.36913139 1.4072723,6.24859239 C1,7.85445185 1,11.1842105 1,11.1842105 C1,11.1842105 1,14.530832 1.4072723,16.1198287 C1.63531909,16.9986411 2.30275744,17.6919625 3.14942131,17.9286906 C4.71234481,18.3684211 10.8830983,18.3684211 10.8830983,18.3684211 C10.8830983,18.3684211 17.0699114,18.3684211 18.6167752,17.9455534 C19.4634391,17.7088253 20.1308774,17.0161525 20.3589242,16.1366915 C20.7662764,14.530832 20.7662764,11.2010733 20.7662764,11.2010733 C20.7662764,11.2010733 20.7822562,7.85380328 20.3589242,6.24859239 L20.3589242,6.24794382 Z M8.91290247,14.2597297 L8.91290247,8.1067456 L14.0577666,11.1829134 L8.91290247,14.2590812 L8.91290247,14.2597297 Z"
            fill="currentColor" fill-rule="nonzero"></path>
    </g>
</svg>