<svg width="22" height="22" viewBox="0 0 22 22" fill="none" xmlns="http://www.w3.org/2000/svg">
<g id="dark_YouTube">
<rect id="&#231;&#159;&#169;&#229;&#189;&#162;" opacity="0.01" width="22" height="22" fill="#F0F0F0"/>
<path id="&#229;&#189;&#162;&#231;&#138;&#182;" fill-rule="evenodd" clip-rule="evenodd" d="M18.6168 4.43908C19.4634 4.67581 20.1309 5.36848 20.3589 6.24794V6.24859C20.7823 7.8538 20.7662 11.2011 20.7662 11.2011C20.7662 11.2011 20.7662 14.5308 20.3589 16.1367C20.1309 17.0162 19.4634 17.7088 18.6168 17.9456C17.0699 18.3684 10.8831 18.3684 10.8831 18.3684C10.8831 18.3684 4.71234 18.3684 3.14942 17.9287C2.30276 17.692 1.63532 16.9986 1.40727 16.1198C1 14.5308 1 11.1842 1 11.1842C1 11.1842 1 7.85445 1.40727 6.24859C1.63532 5.36913 2.31882 4.6596 3.14942 4.42287C4.69629 4 10.8831 4 10.8831 4C10.8831 4 17.0699 4 18.6168 4.43908ZM8.9129 8.10675V14.2591L14.0578 11.1829L8.9129 8.10675Z" fill="#F0F0F0"/>
</g>
</svg>
