<svg width="20" height="20" viewBox="0 0 20 20" fill="none" xmlns="http://www.w3.org/2000/svg">
<path d="M10 1.15039C14.8877 1.15039 18.8496 5.11228 18.8496 10C18.8496 14.8877 14.8877 18.8496 10 18.8496C5.11228 18.8496 1.15039 14.8877 1.15039 10C1.15039 5.11228 5.11228 1.15039 10 1.15039ZM7.66895 10.8496C7.74756 12.6289 8.06926 14.1955 8.52734 15.3408C8.79317 16.0054 9.08865 16.4864 9.37305 16.7871C9.65515 17.0853 9.86718 17.1492 10 17.1494H10.001C10.1338 17.1493 10.3465 17.0857 10.6289 16.7871C10.9132 16.4864 11.2089 16.0052 11.4746 15.3408C11.9326 14.1955 12.2526 12.6288 12.3311 10.8496H7.66895ZM2.90137 10.8496C3.20865 13.4441 4.90343 15.6132 7.22461 16.5918C7.12681 16.3935 7.03481 16.1866 6.94922 15.9727C6.39939 14.5981 6.04712 12.8092 5.96777 10.8496H2.90137ZM14.0332 10.8496C13.9539 12.8091 13.6025 14.5981 13.0527 15.9727C12.9672 16.1864 12.8741 16.3926 12.7764 16.5908C15.0969 15.612 16.7914 13.4436 17.0986 10.8496H14.0332ZM12.7764 3.4082C12.8742 3.60663 12.9671 3.8133 13.0527 4.02734C13.6025 5.40191 13.9539 7.19086 14.0332 9.15039H17.0986C16.7914 6.55623 15.0971 4.38694 12.7764 3.4082ZM10 2.84961C9.86718 2.84985 9.65515 2.91465 9.37305 3.21289C9.08865 3.51361 8.79317 3.99463 8.52734 4.65918C8.06926 5.80451 7.74756 7.37113 7.66895 9.15039H12.3311C12.2526 7.37122 11.9326 5.80448 11.4746 4.65918C11.2089 3.99478 10.9132 3.51364 10.6289 3.21289C10.3465 2.91428 10.1338 2.84975 10.001 2.84961H10ZM7.22461 3.40723C4.90325 4.38573 3.20866 6.55579 2.90137 9.15039H5.96777C6.04712 7.19081 6.39939 5.40193 6.94922 4.02734C7.03492 3.81311 7.12667 3.6058 7.22461 3.40723Z" fill="white"/>
</svg>
