<svg width="20" height="20" viewBox="0 0 20 20" fill="none">
  <g id="icon_light">
    <path id="Union" fill-rule="evenodd" clip-rule="evenodd" d="M9.18182 1H10.8182V3.45455H9.18182V1ZM9.18182 19V16.5455H10.8182V19H9.18182ZM4.21458 3.0575L3.0575 4.21458L4.79312 5.9502L5.9502 4.79312L4.21458 3.0575ZM14.0498 15.2069L15.2069 14.0498L16.9425 15.7854L15.7854 16.9425L14.0498 15.2069ZM16.9425 4.21458L15.7854 3.0575L14.0498 4.79312L15.2069 5.9502L16.9425 4.21458ZM4.79312 14.0498L5.9502 15.2069L4.21458 16.9425L3.0575 15.7854L4.79312 14.0498ZM16.5455 10.8182H19V9.18182H16.5455V10.8182ZM3.45455 9.18182V10.8182H1V9.18182H3.45455ZM6 10C6 12.2091 7.79086 14 10 14C12.2091 14 14 12.2091 14 10C14 7.79086 12.2091 6 10 6C7.79086 6 6 7.79086 6 10Z" fill="currentColor" fill-opacity="0.6"/>
  </g>
</svg>
