<svg width="26" height="26" viewBox="0 0 26 26" fill="none" xmlns="http://www.w3.org/2000/svg">
<g clip-path="url(#clip0_175_5432)">
<path d="M22.143 5.81758L14.4791 1.26758C14.0221 0.997422 13.5102 0.861328 13.0004 0.861328C12.4905 0.861328 11.9787 0.997422 11.5216 1.26961L3.8557 5.81961C2.94164 6.36195 2.37695 7.36539 2.37695 8.45211V17.5521C2.37695 18.6388 2.93961 19.6423 3.8557 20.1846L11.5196 24.7346C11.9766 25.0068 12.4865 25.1409 12.9984 25.1409C13.5082 25.1409 14.0201 25.0048 14.4771 24.7346L22.143 20.1846C23.0571 19.6423 23.6218 18.6368 23.6218 17.5521V8.45008C23.6218 7.36539 23.0591 6.35992 22.143 5.81758ZM16.2077 20.0262L16.2199 20.6802C16.2199 20.7595 16.1691 20.8488 16.1082 20.8813L15.7202 21.1048C15.6593 21.1352 15.6065 21.0987 15.6065 21.0195L15.6004 20.3755C15.2693 20.5137 14.9321 20.5462 14.7188 20.4609C14.6782 20.4446 14.6599 20.3857 14.6762 20.3166L14.8163 19.7255C14.8285 19.6788 14.8529 19.6321 14.8854 19.6037C14.8976 19.5915 14.9098 19.5834 14.922 19.5773C14.9443 19.5651 14.9666 19.563 14.9849 19.5712C15.2165 19.6484 15.511 19.6118 15.7954 19.4696C16.157 19.2868 16.3987 18.9171 16.3946 18.5515C16.3905 18.2184 16.2118 18.0823 15.7751 18.0782C15.2185 18.0802 14.6985 17.9705 14.6904 17.1499C14.6843 16.4755 15.0337 15.7727 15.5902 15.3299L15.5841 14.6698C15.5841 14.5885 15.6329 14.4991 15.6959 14.4666L16.0716 14.227C16.1326 14.1965 16.1854 14.2351 16.1854 14.3143L16.1915 14.9745C16.4677 14.8648 16.7074 14.8343 16.9248 14.8851C16.9715 14.8973 16.9938 14.9623 16.9735 15.0374L16.8273 15.6224C16.8151 15.6671 16.7907 15.7118 16.7602 15.7402C16.7489 15.7516 16.7359 15.7612 16.7216 15.7687C16.7013 15.7788 16.683 15.7809 16.6648 15.7788C16.5652 15.7565 16.3296 15.7057 15.9579 15.8926C15.5679 16.0896 15.4318 16.4288 15.4338 16.6807C15.4379 16.9813 15.5902 17.0727 16.1224 17.0809C16.8313 17.093 17.136 17.4018 17.1441 18.1148C17.1543 18.8135 16.7805 19.5671 16.2077 20.0262ZM20.2255 18.9273C20.2255 18.9882 20.2174 19.0451 20.1666 19.0735L18.2288 20.2516C18.178 20.2821 18.1374 20.2557 18.1374 20.1948V19.6951C18.1374 19.6341 18.174 19.6016 18.2248 19.5712L20.1341 18.4296C20.1849 18.3991 20.2255 18.4255 20.2255 18.4865V18.9273ZM21.558 7.73711L14.3065 12.216C13.4026 12.7441 12.7363 13.3373 12.7343 14.428V23.3635C12.7343 24.0155 12.9984 24.438 13.4026 24.562C13.2705 24.5843 13.1345 24.6005 13.0004 24.6005C12.5759 24.6005 12.1574 24.4848 11.7898 24.2674L4.12586 19.7174C3.37633 19.2726 2.91117 18.4418 2.91117 17.5501V8.45008C2.91117 7.55836 3.37633 6.72758 4.12586 6.28273L11.7918 1.73273C12.1595 1.51539 12.5779 1.39961 13.0024 1.39961C13.427 1.39961 13.8454 1.51539 14.213 1.73273L21.879 6.28273C22.5107 6.65852 22.9373 7.30648 23.0571 8.0357C22.7991 7.49336 22.2263 7.34711 21.558 7.73711Z" fill="white"/>
</g>
<defs>
<clipPath id="clip0_175_5432">
<rect width="26" height="26" fill="white"/>
</clipPath>
</defs>
</svg>
