<svg width="14" height="14" viewBox="0 0 14 14" fill="none" xmlns="http://www.w3.org/2000/svg">
<g id="pic_quotes" opacity="0.6">
<rect id="&#231;&#159;&#169;&#229;&#189;&#162;" y="0.0610352" width="14" height="13.061" fill="#FF0000" fill-opacity="0.01"/>
<path id="&#229;&#189;&#162;&#231;&#138;&#182;" fill-rule="evenodd" clip-rule="evenodd" d="M0.00326956 6.46978V12.3057L0.00328622 12.3056H5.60191V6.43087H2.99998C2.99998 5.49031 3.18279 4.69568 3.55178 4.04685C3.91916 3.39801 4.6026 2.90915 5.60199 2.57855V0.0610352C4.78703 0.161883 4.03149 0.397813 3.3352 0.765666C2.63732 1.13511 2.04053 1.59922 1.54166 2.15794C1.04116 2.71833 0.654477 3.36704 0.378624 4.10432C0.102772 4.84161 -0.0223683 5.6301 0.00326956 6.46978ZM8.40119 6.46983V12.3057L8.4012 12.3057H13.9999V6.43094H11.3979C11.3979 5.49038 11.5807 4.69574 11.9497 4.04691C12.3171 3.39808 13.0005 2.90922 13.9999 2.57861V0.0611019C13.1849 0.16195 12.4278 0.39788 11.7315 0.765733C11.0352 1.13518 10.4368 1.59929 9.93796 2.15801C9.43906 2.7184 9.05089 3.36712 8.77493 4.10439C8.49906 4.84166 8.3739 5.63015 8.40119 6.46983Z" fill="#CAD0D9"/>
</g>
</svg>
